<?xml version="1.0" encoding="utf-8" ?>
<svg baseProfile="tiny" height="128" version="1.2" width="128" xmlns="http://www.w3.org/2000/svg" xmlns:ev="http://www.w3.org/2001/xml-events" xmlns:xlink="http://www.w3.org/1999/xlink"><defs /><polyline fill="none" points="26,106 25,121 24,122 25,127 25,112 26,111" stroke="#00ffb3" stroke-width="0.8" /><polyline fill="none" points="106,104 114,112 115,114 114,116 117,119 124,119 118,119 115,116 115,112 107,104" stroke="#00ffb3" stroke-width="0.8" /><polyline fill="none" points="29,102 29,112 30,117 32,120 29,112" stroke="#00ffb3" stroke-width="0.8" /><polyline fill="none" points="27,101 26,103 24,103 27,104" stroke="#00ffb3" stroke-width="0.8" /><polyline fill="none" points="98,99 99,101 101,100 99,99" stroke="#00ffb3" stroke-width="0.8" /><polyline fill="none" points="39,88 40,101 47,123 50,126 52,126 47,122 42,109 39,95" stroke="#00ffb3" stroke-width="0.8" /><polyline fill="none" points="85,86 84,87 85,87" stroke="#00ffb3" stroke-width="0.8" /><polyline fill="none" points="41,86 42,90 50,97 41,88" stroke="#00ffb3" stroke-width="0.8" /><polyline fill="none" points="57,78 52,80 52,83 54,85 55,89 56,89 54,84 52,82 54,79 58,78 61,79 75,79 61,79 60,78" stroke="#00ffb3" stroke-width="0.8" /><polyline fill="none" points="52,76 49,80 48,85 49,85 49,80 52,77 55,77 53,77" stroke="#00ffb3" stroke-width="0.8" /><polyline fill="none" points="60,73 58,74 67,73 71,75 71,74 68,73 65,74 61,73" stroke="#00ffb3" stroke-width="0.8" /><polyline fill="none" points="57,70 51,73 50,75 53,72 59,70" stroke="#00ffb3" stroke-width="0.8" /><polyline fill="none" points="58,65 58,67 61,67 61,65" stroke="#00ffb3" stroke-width="0.8" /><polyline fill="none" points="66,64 64,66 65,70 66,69 64,67 65,66 66,67 65,66 67,64 69,66 68,67 69,66 71,67 70,68 71,71 79,74 78,73 76,73 70,69 73,66 71,67 67,64" stroke="#00ffb3" stroke-width="0.8" /><polyline fill="none" points="47,47 47,48 50,47 52,49 50,51 45,50 43,52 41,51 45,48 41,50 40,49 41,52 43,53 46,50 49,52 51,51 52,48 55,47 52,48 50,47" stroke="#00ffb3" stroke-width="0.8" /><polyline fill="none" points="74,46 75,50 81,49 82,51 83,50 79,48 77,50 75,49 76,46 81,46 84,48 81,46" stroke="#00ffb3" stroke-width="0.8" /><polyline fill="none" points="70,43 81,43 84,45 82,43" stroke="#00ffb3" stroke-width="0.8" /><polyline fill="none" points="44,41 40,44 40,47 48,44 53,44 58,42 56,41" stroke="#00ffb3" stroke-width="0.8" /><polyline fill="none" points="74,39 67,41 65,48 63,46 59,47 58,46 60,50 52,58 59,53 60,51 59,47 63,46 65,48 65,57 67,59 66,62 67,58 65,56 65,48 67,46 66,43 68,41 74,39 83,40 87,45 89,54 86,42 81,39" stroke="#00ffb3" stroke-width="0.8" /><polyline fill="none" points="38,38 35,42 35,48 36,49 36,58 35,59 38,70 40,72 35,59 36,58 35,42 37,41 37,39" stroke="#00ffb3" stroke-width="0.8" /><polyline fill="none" points="42,18 39,20 36,25 35,29 36,34 35,29 37,23" stroke="#00ffb3" stroke-width="0.8" /><polyline fill="none" points="56,11 53,13 45,15 53,13 56,11 66,11 68,13 69,11 71,13 79,15 86,22 87,37 90,46 90,50 89,41 87,36 86,22 79,15 71,13 69,11" stroke="#00ffb3" stroke-width="0.8" /><polyline fill="none" points="55,8 40,15 35,21 32,28 32,34 31,35 32,36 33,51 28,53 28,60 30,63 31,70 33,73 35,73 37,75 39,84 31,95 29,95 26,98 20,100 9,109 0,114 7,111 15,104 31,95 39,84 37,74 35,70 35,65 36,72 34,73 31,69 30,63 28,60 28,54 31,51 34,53 34,55 32,46 32,36 31,35 32,34 32,28 35,22 41,15 55,8 69,8 80,13 88,21 91,26 92,37 93,38 93,53 92,54 91,52 92,60 93,60 92,59 93,52 96,51 98,53 98,58 96,61 96,64 91,73 91,78 87,84 89,88 88,89 88,99 89,100 88,112 89,115 88,112 89,109 88,108 89,107 88,89 89,88 95,95 100,96 114,106 125,112 127,112 115,106 102,97 96,95 87,85 90,81 91,73 96,65 96,61 98,58 98,52 93,50 92,30 88,20 81,13 69,8" stroke="#00ffb3" stroke-width="0.8" /></svg>